#!OML:ASF X:\für Bonn\!DataBase\2005_08_12_Daniel\c3d\Daniel.ASF
:FULLY-SPECIFIED
:DEGREES
76
root 1.75651 17.6537 -15.1688 350.056 0.616847 -0.563104
lowerback 20.0947 0.189872 0.796968
upperback 10.501 0.33084 -2.7109
thorax 0.137504 0.281259 -3.3969
lowerneck 9.7681 0.699872 -1.98021
upperneck 29.1486 1.1171 -0.66688
head 7.45529 0.27769 0.153505
rclavicle 4.37326e-015 3.18055e-015
rhumerus 175.974 -168.647 -273.572
rradius 13.4577
rwrist 33.1394
rhand -24.7685 15.8773
rfingers 7.12502
rthumb 1.73519 -14.0954
lclavicle 4.37326e-015 3.18055e-015
lhumerus -22.9444 15.9175 81.3353
lradius 33.6719
lwrist -12.8685
lhand -11.5284 -6.1344
lfingers 7.12502
lthumb 14.5114 23.3381
rfemur 0.821126 11.1029 15.6034
rtibia 20.8922
rfoot -14.114 -7.252
rtoes -18.64
lfemur -5.01978 -11.1198 -21.6755
ltibia 33.3328
lfoot -17.5245 4.10119
ltoes -9.23323
77
root 1.75161 17.6522 -15.1756 350.095 0.943783 -0.491869
lowerback 20.607 0.202263 0.846736
upperback 10.6244 0.357408 -2.72985
thorax 0.01823 0.299057 -3.45788
lowerneck 9.65965 0.548597 -1.97983
upperneck 28.8562 0.864197 -0.431139
head 7.37 0.180164 0.225001
rclavicle -1.98785e-015 1.03368e-014
rhumerus 176.233 -168.567 -273.573
rradius 13.4764
rwrist 33.2334
rhand -24.6516 15.8545
rfingers 7.12502
rthumb 1.84805 -14.1173
lclavicle -1.98785e-015 1.03368e-014
lhumerus -22.8725 15.0024 81.6069
lradius 34.5968
lwrist -12.2318
lhand -11.7123 -6.34334
lfingers 7.12502
lthumb 14.3342 23.1418
rfemur 0.83508 10.8337 15.4844
rtibia 21.0403
rfoot -14.2529 -7.22157
rtoes -18.5233
lfemur -5.11423 -11.3175 -21.7791
ltibia 33.3088
lfoot -17.4432 4.00027
ltoes -9.37732
78
root 1.74668 17.6516 -15.185 350.131 1.29644 -0.423131
lowerback 21.1628 0.216965 0.914814
upperback 10.7394 0.390942 -2.74047
thorax -0.1297 0.320636 -3.52309
lowerneck 9.60623 0.359823 -1.91007
upperneck 28.5422 0.568567 -0.225068
head 7.27025 0.067263 0.272887
rclavicle -9.93923e-015 -2.54444e-014
rhumerus 176.451 -168.679 -273.518
rradius 13.5571
rwrist 33.0045
rhand -24.3732 15.7824
rfingers 7.12502
rthumb 2.11698 -14.1869
lclavicle -9.93923e-015 -2.54444e-014
lhumerus -22.8534 14.153 81.871
lradius 35.5067
lwrist -11.7185
lhand -11.8295 -6.6321
lfingers 7.12502
lthumb 14.2213 22.861
rfemur 0.858316 10.5862 15.367
rtibia 21.1799
rfoot -14.3964 -7.19477
rtoes -18.4373
lfemur -5.223 -11.4822 -21.8717
ltibia 33.2982
lfoot -17.3571 3.86442
ltoes -9.49746
79
root 1.74186 17.651 -15.1973 350.22 1.64257 -0.351734
lowerback 21.6871 0.231634 0.98992
upperback 10.8543 0.426682 -2.75066
thorax -0.259909 0.343816 -3.59251
lowerneck 9.56468 0.156599 -1.80861
upperneck 28.1844 0.255188 -0.021848
head 7.15478 -0.0516637 0.313632
rclavicle -1.39149e-014 2.38542e-015
rhumerus 176.705 -168.797 -273.463
rradius 13.6111
rwrist 32.8278
rhand -24.1241 15.6358
rfingers 7.12502
rthumb 2.35755 -14.3309
lclavicle -1.39149e-014 2.38542e-015
lhumerus -22.8317 13.3017 82.153
lradius 36.4555
lwrist -11.1411
lhand -11.9689 -6.87834
lfingers 7.12502
lthumb 14.0869 22.6242
rfemur 0.774203 10.3802 15.2304
rtibia 21.322
rfoot -14.5025 -7.21011
rtoes -18.1215
lfemur -5.40246 -11.6746 -21.9584
ltibia 33.278
lfoot -17.2443 3.75784
ltoes -9.58771
80
root 1.73749 17.6524 -15.2115 350.346 2.01392 -0.281198
lowerback 22.2161 0.232429 1.07988
upperback 10.9564 0.448089 -2.76035
thorax -0.405464 0.360154 -3.6676
lowerneck 9.65199 -0.0474567 -1.66836
upperneck 27.7136 -0.058731 0.175481
head 6.98159 -0.167979 0.345513
rclavicle -7.95139e-016 3.18055e-014
rhumerus 176.954 -169.097 -273.391
rradius 13.6889
rwrist 32.3845
rhand -23.8351 15.4572
rfingers 7.12502
rthumb 2.63663 -14.5063
lclavicle -7.95139e-016 3.18055e-014
lhumerus -22.8273 12.4724 82.4191
lradius 37.4147
lwrist -10.542
lhand -11.9824 -7.0719
lfingers 7.12502
lthumb 14.0739 22.4315
rfemur 0.613528 10.1754 15.0719
rtibia 21.4366
rfoot -14.581 -7.26943
rtoes -17.8524
lfemur -5.62697 -11.8982 -22.0369
ltibia 33.2604
lfoot -17.1282 3.63713
ltoes -9.69071
81
root 1.73197 17.655 -15.2274 350.506 2.36603 -0.226011
lowerback 22.7391 0.238401 1.19089
upperback 11.0501 0.481204 -2.76723
thorax -0.55451 0.382895 -3.75483
lowerneck 9.8016 -0.269752 -1.4725
upperneck 27.1826 -0.381891 0.315949
head 6.77985 -0.288533 0.3493
rclavicle 0 -2.54444e-014
rhumerus 177.247 -169.211 -273.315
rradius 13.718
rwrist 32.1648
rhand -23.5165 15.2468
rfingers 7.12502
rthumb 2.94432 -14.7127
lclavicle 0 -2.54444e-014
lhumerus -22.8176 11.715 82.677
lradius 38.346
lwrist -9.99012
lhand -11.9953 -7.34357
lfingers 7.12502
lthumb 14.0615 22.1607
rfemur 0.393154 10.0203 14.9343
rtibia 21.532
rfoot -14.6257 -7.35678
rtoes -17.4766
lfemur -5.89465 -12.1134 -22.0859
ltibia 33.2338
lfoot -16.9935 3.53761
ltoes -9.77972
82
root 1.72607 17.658 -15.2443 350.676 2.72669 -0.183651
lowerback 23.2196 0.244208 1.31197
upperback 11.1998 0.51912 -2.7609
thorax -0.618964 0.410079 -3.8341
lowerneck 9.9525 -0.512122 -1.1922
upperneck 26.5703 -0.721165 0.432435
head 6.55192 -0.412276 0.331189
rclavicle 1.98785e-014 -3.4191e-014
rhumerus 177.606 -169.576 -273.206
rradius 13.7919
rwrist 31.6474
rhand -23.2023 15.0181
rfingers 7.12502
rthumb 3.24776 -14.9369
lclavicle 1.98785e-014 -3.4191e-014
lhumerus -22.6927 10.9678 82.9685
lradius 39.2244
lwrist -9.42868
lhand -11.9887 -7.53754
lfingers 7.12502
lthumb 14.0679 21.9663
rfemur 0.169574 9.86817 14.8045
rtibia 21.6009
rfoot -14.6801 -7.44231
rtoes -17.1035
lfemur -6.18408 -12.2857 -22.107
ltibia 33.2137
lfoot -16.8527 3.3661
ltoes -9.94144
83
root 1.71988 17.6606 -15.2637 350.848 3.09395 -0.145272
lowerback 23.7213 0.235348 1.43
upperback 11.3678 0.539541 -2.74343
thorax -0.673203 0.428659 -3.89622
lowerneck 10.0525 -0.758981 -0.90316
upperneck 25.9484 -1.0543 0.509588
head 6.33016 -0.537232 0.299908
rclavicle 2.38542e-015 -3.18055e-014
rhumerus 177.999 -169.966 -273.087
rradius 13.8802
rwrist 31.1245
rhand -22.9319 14.773
rfingers 7.12502
rthumb 3.50884 -15.1779
lclavicle 2.38542e-015 -3.18055e-014
lhumerus -22.5973 10.2361 83.26
lradius 40.1711
lwrist -8.80569
lhand -11.9637 -7.75236
lfingers 7.12502
lthumb 14.092 21.7498
rfemur -0.0633523 9.72541 14.6803
rtibia 21.6609
rfoot -14.7073 -7.57007
rtoes -16.5942
lfemur -6.48627 -12.4978 -22.1261
ltibia 33.1909
lfoot -16.7005 3.24235
ltoes -10.0306
84
root 1.71272 17.6636 -15.2838 351.057 3.4631 -0.092675
lowerback 24.1419 0.225201 1.50565
upperback 11.5891 0.55246 -2.70207
thorax -0.629337 0.443459 -3.9045
lowerneck 10.0377 -1.00862 -0.613042
upperneck 25.3559 -1.37593 0.523334
head 6.13679 -0.662356 0.248721
rclavicle -3.81667e-014 3.10104e-014
rhumerus 178.498 -170.45 -272.939
rradius 13.9659
rwrist 30.5507
rhand -22.6693 14.4504
rfingers 7.12502
rthumb 3.7625 -15.4961
lclavicle -3.81667e-014 3.10104e-014
lhumerus -22.4618 9.53518 83.5924
lradius 41.179
lwrist -8.12621
lhand -11.9389 -7.84772
lfingers 7.12502
lthumb 14.1158 21.6528
rfemur -0.317048 9.5687 14.539
rtibia 21.6991
rfoot -14.7576 -7.66983
rtoes -16.1377
lfemur -6.84048 -12.6791 -22.1395
ltibia 33.1848
lfoot -16.5503 3.08521
ltoes -10.2087
85
root 1.70441 17.6657 -15.305 351.251 3.83285 -0.0542775
lowerback 24.5874 0.21996 1.59684
upperback 11.8311 0.576699 -2.65216
thorax -0.5713 0.465192 -3.91549
lowerneck 10.0044 -1.24486 -0.375691
upperneck 24.7225 -1.69299 0.612074
head 5.93476 -0.78747 0.231777
rclavicle -1.11319e-014 -6.36111e-015
rhumerus 179.005 -170.843 -272.782
rradius 14.0657
rwrist 29.9652
rhand -22.423 14.1856
rfingers 7.12502
rthumb 4.0003 -15.7566
lclavicle -1.11319e-014 -6.36111e-015
lhumerus -22.3235 8.84316 83.9378
lradius 42.233
lwrist -7.42862
lhand -11.8807 -7.96826
lfingers 7.12502
lthumb 14.172 21.5283
rfemur -0.548321 9.45139 14.4297
rtibia 21.7448
rfoot -14.8515 -7.8241
rtoes -15.7771
lfemur -7.19027 -12.8677 -22.1295
ltibia 33.1794
lfoot -16.3971 2.89188
ltoes -10.201
